<svg width="24" height="24" viewBox="0 0 24 24" fill="none" xmlns="http://www.w3.org/2000/svg">
<mask id="mask0_14578_49665" style="mask-type:alpha" maskUnits="userSpaceOnUse" x="0" y="0" width="24" height="24">
<rect width="24" height="24" fill="#D9D9D9"/>
</mask>
<g mask="url(#mask0_14578_49665)">
<path d="M12 12C10.7625 12 9.70313 11.5594 8.82188 10.6781C7.94063 9.79688 7.5 8.7375 7.5 7.5C7.5 6.2625 7.94063 5.20312 8.82188 4.32188C9.70313 3.44063 10.7625 3 12 3C13.2375 3 14.2969 3.44063 15.1781 4.32188C16.0594 5.20312 16.5 6.2625 16.5 7.5C16.5 8.7375 16.0594 9.79688 15.1781 10.6781C14.2969 11.5594 13.2375 12 12 12ZM3 21V17.85C3 17.2125 3.15938 16.6266 3.47813 16.0922C3.79688 15.5578 4.2375 15.15 4.8 14.8688C5.925 14.3063 7.09219 13.875 8.30156 13.575C9.51094 13.275 10.7438 13.125 12 13.125C13.2563 13.125 14.4891 13.275 15.6984 13.575C16.9078 13.875 18.075 14.3063 19.2 14.8688C19.7625 15.15 20.2031 15.5578 20.5219 16.0922C20.8406 16.6266 21 17.2125 21 17.85V21H3ZM12 9.75C12.6187 9.75 13.1484 9.52969 13.5891 9.08906C14.0297 8.64844 14.25 8.11875 14.25 7.5C14.25 6.88125 14.0297 6.35156 13.5891 5.91094C13.1484 5.47031 12.6187 5.25 12 5.25C11.3813 5.25 10.8516 5.47031 10.4109 5.91094C9.97031 6.35156 9.75 6.88125 9.75 7.5C9.75 8.11875 9.97031 8.64844 10.4109 9.08906C10.8516 9.52969 11.3813 9.75 12 9.75ZM16.5 16.1625V18.75H18.75V17.85C18.75 17.6438 18.7031 17.4563 18.6094 17.2875C18.5156 17.1187 18.375 16.9875 18.1875 16.8938C17.925 16.7438 17.6484 16.6078 17.3578 16.4859C17.0672 16.3641 16.7812 16.2562 16.5 16.1625ZM9.75 15.5719V17.0625H14.25V15.5719C13.875 15.4969 13.5 15.4453 13.125 15.4172C12.75 15.3891 12.375 15.375 12 15.375C11.625 15.375 11.25 15.3891 10.875 15.4172C10.5 15.4453 10.125 15.4969 9.75 15.5719ZM5.25 18.75H7.5V16.1625C7.21875 16.2562 6.93281 16.3641 6.64219 16.4859C6.35156 16.6078 6.075 16.7438 5.8125 16.8938C5.625 16.9875 5.48438 17.1187 5.39062 17.2875C5.29688 17.4563 5.25 17.6438 5.25 17.85V18.75Z" fill="#EB001B"/>
</g>
</svg>
