<svg width="24" height="25" viewBox="0 0 24 25" fill="none" xmlns="http://www.w3.org/2000/svg">
<g id="Additional/data">
<g id="Icon">
<path d="M21.2 22.125C21.48 22.125 21.62 22.125 21.727 22.0705C21.8211 22.0226 21.8976 21.9461 21.9455 21.852C22 21.745 22 21.605 22 21.325V10.925C22 10.645 22 10.505 21.9455 10.398C21.8976 10.3039 21.8211 10.2274 21.727 10.1795C21.62 10.125 21.48 10.125 21.2 10.125L18.8 10.125C18.52 10.125 18.38 10.125 18.273 10.1795C18.1789 10.2274 18.1024 10.3039 18.0545 10.398C18 10.505 18 10.645 18 10.925V13.325C18 13.605 18 13.745 17.9455 13.852C17.8976 13.9461 17.8211 14.0226 17.727 14.0705C17.62 14.125 17.48 14.125 17.2 14.125H14.8C14.52 14.125 14.38 14.125 14.273 14.1795C14.1789 14.2274 14.1024 14.3039 14.0545 14.398C14 14.505 14 14.645 14 14.925V17.325C14 17.605 14 17.745 13.9455 17.852C13.8976 17.9461 13.8211 18.0226 13.727 18.0705C13.62 18.125 13.48 18.125 13.2 18.125H10.8C10.52 18.125 10.38 18.125 10.273 18.1795C10.1789 18.2274 10.1024 18.3039 10.0545 18.398C10 18.505 10 18.645 10 18.925V21.325C10 21.605 10 21.745 10.0545 21.852C10.1024 21.9461 10.1789 22.0226 10.273 22.0705C10.38 22.125 10.52 22.125 10.8 22.125L21.2 22.125Z" stroke="#EB001B" stroke-width="2" stroke-linecap="round" stroke-linejoin="round"/>
<path d="M10 6.925C10 6.64497 10 6.50496 10.0545 6.398C10.1024 6.30392 10.1789 6.22743 10.273 6.1795C10.38 6.125 10.52 6.125 10.8 6.125H13.2C13.48 6.125 13.62 6.125 13.727 6.1795C13.8211 6.22743 13.8976 6.30392 13.9455 6.398C14 6.50496 14 6.64497 14 6.925V9.325C14 9.60503 14 9.74504 13.9455 9.852C13.8976 9.94608 13.8211 10.0226 13.727 10.0705C13.62 10.125 13.48 10.125 13.2 10.125H10.8C10.52 10.125 10.38 10.125 10.273 10.0705C10.1789 10.0226 10.1024 9.94608 10.0545 9.852C10 9.74504 10 9.60503 10 9.325V6.925Z" stroke="#EB001B" stroke-width="2" stroke-linecap="round" stroke-linejoin="round"/>
<path d="M3 12.925C3 12.645 3 12.505 3.0545 12.398C3.10243 12.3039 3.17892 12.2274 3.273 12.1795C3.37996 12.125 3.51997 12.125 3.8 12.125H6.2C6.48003 12.125 6.62004 12.125 6.727 12.1795C6.82108 12.2274 6.89757 12.3039 6.9455 12.398C7 12.505 7 12.645 7 12.925V15.325C7 15.605 7 15.745 6.9455 15.852C6.89757 15.9461 6.82108 16.0226 6.727 16.0705C6.62004 16.125 6.48003 16.125 6.2 16.125H3.8C3.51997 16.125 3.37996 16.125 3.273 16.0705C3.17892 16.0226 3.10243 15.9461 3.0545 15.852C3 15.745 3 15.605 3 15.325V12.925Z" stroke="#EB001B" stroke-width="2" stroke-linecap="round" stroke-linejoin="round"/>
<path d="M2 2.925C2 2.64497 2 2.50496 2.0545 2.398C2.10243 2.30392 2.17892 2.22743 2.273 2.1795C2.37996 2.125 2.51997 2.125 2.8 2.125H5.2C5.48003 2.125 5.62004 2.125 5.727 2.1795C5.82108 2.22743 5.89757 2.30392 5.9455 2.398C6 2.50496 6 2.64497 6 2.925V5.325C6 5.60503 6 5.74504 5.9455 5.852C5.89757 5.94608 5.82108 6.02257 5.727 6.0705C5.62004 6.125 5.48003 6.125 5.2 6.125H2.8C2.51997 6.125 2.37996 6.125 2.273 6.0705C2.17892 6.02257 2.10243 5.94608 2.0545 5.852C2 5.74504 2 5.60503 2 5.325V2.925Z" stroke="#EB001B" stroke-width="2" stroke-linecap="round" stroke-linejoin="round"/>
</g>
</g>
</svg>
