<svg width="24" height="25" viewBox="0 0 24 25" fill="none" xmlns="http://www.w3.org/2000/svg">
<g id="Additional/integrations">
<path id="Icon" d="M7.5 4.625C7.5 3.24429 8.61929 2.125 10 2.125C11.3807 2.125 12.5 3.24429 12.5 4.625V6.125L13.5 6.125C14.8978 6.125 15.5967 6.125 16.1481 6.35336C16.8831 6.65784 17.4672 7.24187 17.7716 7.97695C18 8.52826 18 9.22718 18 10.625H19.5C20.8807 10.625 22 11.7443 22 13.125C22 14.5057 20.8807 15.625 19.5 15.625H18V17.325C18 19.0052 18 19.8452 17.673 20.487C17.3854 21.0515 16.9265 21.5104 16.362 21.798C15.7202 22.125 14.8802 22.125 13.2 22.125H12.5V20.375C12.5 19.1324 11.4926 18.125 10.25 18.125C9.00736 18.125 8 19.1324 8 20.375V22.125H6.8C5.11984 22.125 4.27976 22.125 3.63803 21.798C3.07354 21.5104 2.6146 21.0515 2.32698 20.487C2 19.8452 2 19.0052 2 17.325V15.625H3.5C4.88071 15.625 6 14.5057 6 13.125C6 11.7443 4.88071 10.625 3.5 10.625H2C2 9.22718 2 8.52826 2.22836 7.97695C2.53284 7.24187 3.11687 6.65784 3.85195 6.35336C4.40326 6.125 5.10218 6.125 6.5 6.125H7.5V4.625Z" stroke="#EB001B" stroke-width="2" stroke-linecap="round" stroke-linejoin="round"/>
</g>
</svg>
