<svg width="24" height="24" viewBox="0 0 24 24" fill="none" xmlns="http://www.w3.org/2000/svg">
<mask id="mask0_14578_49643" style="mask-type:alpha" maskUnits="userSpaceOnUse" x="0" y="0" width="24" height="24">
<rect width="24" height="24" fill="#D9D9D9"/>
</mask>
<g mask="url(#mask0_14578_49643)">
<path d="M4 20C3.45 20 2.97917 19.8042 2.5875 19.4125C2.19583 19.0208 2 18.55 2 18V6C2 5.45 2.19583 4.97917 2.5875 4.5875C2.97917 4.19583 3.45 4 4 4H10L12 6H20C20.55 6 21.0208 6.19583 21.4125 6.5875C21.8042 6.97917 22 7.45 22 8V14.05C21.7 13.8167 21.3833 13.625 21.05 13.475C20.7167 13.325 20.3667 13.1667 20 13V8H11.175L9.175 6H4V18H7V20H4ZM16 23C14.4833 23 13.0833 22.6 11.8 21.8C10.5167 21 9.58333 19.9 9 18.5C9.58333 17.1 10.5167 16 11.8 15.2C13.0833 14.4 14.4833 14 16 14C17.5167 14 18.9167 14.4 20.2 15.2C21.4833 16 22.4167 17.1 23 18.5C22.4167 19.9 21.4833 21 20.2 21.8C18.9167 22.6 17.5167 23 16 23ZM16 21C16.95 21 17.8458 20.7833 18.6875 20.35C19.5292 19.9167 20.2167 19.3 20.75 18.5C20.2167 17.7 19.5292 17.0833 18.6875 16.65C17.8458 16.2167 16.95 16 16 16C15.05 16 14.1542 16.2167 13.3125 16.65C12.4708 17.0833 11.7833 17.7 11.25 18.5C11.7833 19.3 12.4708 19.9167 13.3125 20.35C14.1542 20.7833 15.05 21 16 21ZM16 20C15.5833 20 15.2292 19.8542 14.9375 19.5625C14.6458 19.2708 14.5 18.9167 14.5 18.5C14.5 18.0833 14.6458 17.7292 14.9375 17.4375C15.2292 17.1458 15.5833 17 16 17C16.4167 17 16.7708 17.1458 17.0625 17.4375C17.3542 17.7292 17.5 18.0833 17.5 18.5C17.5 18.9167 17.3542 19.2708 17.0625 19.5625C16.7708 19.8542 16.4167 20 16 20ZM4 18V6V12.925V12V18Z" fill="#EB001B"/>
</g>
</svg>
