<svg width="24" height="24" viewBox="0 0 24 24" fill="none" xmlns="http://www.w3.org/2000/svg">
<mask id="mask0_14578_49888" style="mask-type:alpha" maskUnits="userSpaceOnUse" x="0" y="0" width="24" height="24">
<rect x="24" width="24" height="24" transform="rotate(90 24 0)" fill="#D9D9D9"/>
</mask>
<g mask="url(#mask0_14578_49888)">
<path d="M2 5C2 4.16667 2.29167 3.45833 2.875 2.875C3.45833 2.29167 4.16667 2 5 2C5.65 2 6.23333 2.1875 6.75 2.5625C7.26667 2.9375 7.625 3.41667 7.825 4L10 4C10.8333 4 11.5417 4.29167 12.125 4.875C12.7083 5.45833 13 6.16667 13 7L13 11L16.175 11C16.375 10.4167 16.7333 9.9375 17.25 9.5625C17.7667 9.1875 18.35 9 19 9C19.8333 9 20.5417 9.29167 21.125 9.875C21.7083 10.4583 22 11.1667 22 12C22 12.8333 21.7083 13.5417 21.125 14.125C20.5417 14.7083 19.8333 15 19 15C18.35 15 17.7667 14.8125 17.25 14.4375C16.7333 14.0625 16.375 13.5833 16.175 13L13 13L13 17C13 17.8333 12.7083 18.5417 12.125 19.125C11.5417 19.7083 10.8333 20 10 20L7.825 20C7.625 20.5833 7.26667 21.0625 6.75 21.4375C6.23333 21.8125 5.65 22 5 22C4.16667 22 3.45833 21.7083 2.875 21.125C2.29167 20.5417 2 19.8333 2 19C2 18.1667 2.29167 17.4583 2.875 16.875C3.45833 16.2917 4.16667 16 5 16C5.65 16 6.23333 16.1875 6.75 16.5625C7.26667 16.9375 7.625 17.4167 7.825 18L10 18C10.2833 18 10.5208 17.9042 10.7125 17.7125C10.9042 17.5208 11 17.2833 11 17L11 13L7.825 13C7.625 13.5833 7.26667 14.0625 6.75 14.4375C6.23333 14.8125 5.65 15 5 15C4.16667 15 3.45833 14.7083 2.875 14.125C2.29167 13.5417 2 12.8333 2 12C2 11.1667 2.29167 10.4583 2.875 9.875C3.45833 9.29167 4.16667 9 5 9C5.65 9 6.23333 9.1875 6.75 9.5625C7.26667 9.9375 7.625 10.4167 7.825 11L11 11L11 7C11 6.71667 10.9042 6.47917 10.7125 6.2875C10.5208 6.09583 10.2833 6 10 6L7.825 6C7.625 6.58333 7.26667 7.0625 6.75 7.4375C6.23333 7.8125 5.65 8 5 8C4.16667 8 3.45833 7.70833 2.875 7.125C2.29167 6.54167 2 5.83333 2 5ZM4 5C4 5.28333 4.09583 5.52083 4.2875 5.7125C4.47917 5.90417 4.71667 6 5 6C5.28333 6 5.52083 5.90417 5.7125 5.7125C5.90417 5.52083 6 5.28333 6 5C6 4.71667 5.90417 4.47917 5.7125 4.2875C5.52083 4.09583 5.28333 4 5 4C4.71667 4 4.47917 4.09583 4.2875 4.2875C4.09583 4.47917 4 4.71667 4 5ZM4 12C4 12.2833 4.09583 12.5208 4.2875 12.7125C4.47917 12.9042 4.71667 13 5 13C5.28333 13 5.52083 12.9042 5.7125 12.7125C5.90417 12.5208 6 12.2833 6 12C6 11.7167 5.90417 11.4792 5.7125 11.2875C5.52083 11.0958 5.28333 11 5 11C4.71667 11 4.47917 11.0958 4.2875 11.2875C4.09583 11.4792 4 11.7167 4 12ZM4 19C4 19.2833 4.09583 19.5208 4.2875 19.7125C4.47917 19.9042 4.71667 20 5 20C5.28333 20 5.52083 19.9042 5.7125 19.7125C5.90417 19.5208 6 19.2833 6 19C6 18.7167 5.90417 18.4792 5.7125 18.2875C5.52083 18.0958 5.28333 18 5 18C4.71667 18 4.47917 18.0958 4.2875 18.2875C4.09583 18.4792 4 18.7167 4 19ZM18 12C18 12.2833 18.0958 12.5208 18.2875 12.7125C18.4792 12.9042 18.7167 13 19 13C19.2833 13 19.5208 12.9042 19.7125 12.7125C19.9042 12.5208 20 12.2833 20 12C20 11.7167 19.9042 11.4792 19.7125 11.2875C19.5208 11.0958 19.2833 11 19 11C18.7167 11 18.4792 11.0958 18.2875 11.2875C18.0958 11.4792 18 11.7167 18 12Z" fill="#EB001B"/>
</g>
</svg>
