<svg width="21" height="22" viewBox="0 0 21 22" fill="none" xmlns="http://www.w3.org/2000/svg">
<path fill-rule="evenodd" clip-rule="evenodd" d="M21 11C21 16.799 16.299 21.5 10.5 21.5C4.70101 21.5 0 16.799 0 11C0 5.20101 4.70101 0.5 10.5 0.5C16.299 0.5 21 5.20101 21 11ZM15.9651 9.46489C16.8125 9.46489 17.5002 10.1526 17.5002 11C17.5002 11.6263 17.1195 12.1666 16.616 12.4123C16.6406 12.5596 16.6529 12.707 16.6529 12.8666C16.6529 15.2245 13.9143 17.128 10.5248 17.128C7.13531 17.128 4.39671 15.2245 4.39671 12.8666C4.39671 12.707 4.40899 12.5473 4.43355 12.4C3.8932 12.1544 3.52478 11.6263 3.52478 11C3.52478 10.1526 4.2125 9.46489 5.05987 9.46489C5.46513 9.46489 5.84583 9.63682 6.11601 9.89472C7.17215 9.12103 8.63355 8.64209 10.2669 8.59296L11.0406 4.93331C11.0651 4.85963 11.102 4.79822 11.1634 4.76138C11.2248 4.72454 11.2985 4.71226 11.3721 4.72454L13.9143 5.26489C14.0862 4.89647 14.4546 4.65086 14.8844 4.65086C15.4862 4.65086 15.9774 5.14209 15.9774 5.74384C15.9774 6.34559 15.4862 6.83682 14.8844 6.83682C14.295 6.83682 13.816 6.37015 13.7914 5.79296L11.5195 5.31401L10.8195 8.59296C12.416 8.65437 13.8651 9.14559 14.909 9.89472C15.1792 9.62454 15.5476 9.46489 15.9651 9.46489ZM8.0932 11C7.49145 11 7.00022 11.4912 7.00022 12.093C7.00022 12.6947 7.49145 13.1859 8.0932 13.1859C8.69496 13.1859 9.18618 12.6947 9.18618 12.093C9.18618 11.4912 8.69496 11 8.0932 11ZM10.5125 15.7772C10.93 15.7772 12.3546 15.7281 13.1037 14.9789C13.2143 14.8684 13.2143 14.6965 13.1283 14.5737C13.0178 14.4631 12.8336 14.4631 12.723 14.5737C12.2441 15.0403 11.2493 15.2123 10.5248 15.2123C9.80022 15.2123 8.7932 15.0403 8.32654 14.5737C8.21601 14.4631 8.0318 14.4631 7.92127 14.5737C7.81074 14.6842 7.81074 14.8684 7.92127 14.9789C8.65811 15.7158 10.095 15.7772 10.5125 15.7772ZM11.8143 12.093C11.8143 12.6947 12.3055 13.1859 12.9072 13.1859C13.509 13.1859 14.0002 12.6947 14.0002 12.093C14.0002 11.4912 13.509 11 12.9072 11C12.3055 11 11.8143 11.4912 11.8143 12.093Z" fill="#01004C"/>
</svg>
